{
    "asset" : {
        "generator" : "Khronos glTF Blender I/O v1.7.33",
        "version" : "2.0"
    },
    "scene" : 0,
    "scenes" : [
        {
            "name" : "Scene",
            "nodes" : [
                0,
                1
            ]
        }
    ],
    "nodes" : [
        {
            "mesh" : 0,
            "name" : "AR-1-main",
            "rotation" : [
                -0.19900618493556976,
                0.6785252094268799,
                -0.6785252690315247,
                -0.19900639355182648
            ],
            "scale" : [
                5,
                5,
                5
            ]
        },
        {
            "mesh" : 1,
            "name" : "AR-2-main",
            "rotation" : [
                0.08359350264072418,
                0.7021482586860657,
                -0.7021482586860657,
                0.08359327167272568
            ],
            "scale" : [
                7,
                7,
                7
            ],
            "translation" : [
                -0.38999998569488525,
                0,
                0
            ]
        }
    ],
    "materials" : [
        {
            "alphaMode" : "BLEND",
            "doubleSided" : true,
            "name" : "AR-1-main",
            "pbrMetallicRoughness" : {
                "baseColorTexture" : {
                    "index" : 0
                },
                "metallicFactor" : 0,
                "roughnessFactor" : 0.5
            }
        },
        {
            "alphaMode" : "BLEND",
            "doubleSided" : true,
            "name" : "AR-2-main",
            "pbrMetallicRoughness" : {
                "baseColorTexture" : {
                    "index" : 1
                },
                "metallicFactor" : 0,
                "roughnessFactor" : 0.5
            }
        }
    ],
    "meshes" : [
        {
            "name" : "AR-1-main",
            "primitives" : [
                {
                    "attributes" : {
                        "POSITION" : 0,
                        "NORMAL" : 1,
                        "TEXCOORD_0" : 2
                    },
                    "indices" : 3,
                    "material" : 0
                }
            ]
        },
        {
            "name" : "AR-2-main",
            "primitives" : [
                {
                    "attributes" : {
                        "POSITION" : 4,
                        "NORMAL" : 5,
                        "TEXCOORD_0" : 6
                    },
                    "indices" : 7,
                    "material" : 1
                }
            ]
        }
    ],
    "textures" : [
        {
            "sampler" : 0,
            "source" : 0
        },
        {
            "sampler" : 0,
            "source" : 1
        }
    ],
    "images" : [
        {
            "bufferView" : 4,
            "mimeType" : "image/png",
            "name" : "AR-1-main"
        },
        {
            "bufferView" : 9,
            "mimeType" : "image/png",
            "name" : "AR-2-main"
        }
    ],
    "accessors" : [
        {
            "bufferView" : 0,
            "componentType" : 5126,
            "count" : 12,
            "max" : [
                0.7072580456733704,
                0,
                0.5
            ],
            "min" : [
                -0.7072580456733704,
                0,
                -0.5
            ],
            "type" : "VEC3"
        },
        {
            "bufferView" : 1,
            "componentType" : 5126,
            "count" : 12,
            "type" : "VEC3"
        },
        {
            "bufferView" : 2,
            "componentType" : 5126,
            "count" : 12,
            "type" : "VEC2"
        },
        {
            "bufferView" : 3,
            "componentType" : 5123,
            "count" : 36,
            "type" : "SCALAR"
        },
        {
            "bufferView" : 5,
            "componentType" : 5126,
            "count" : 4,
            "max" : [
                0.7072580456733704,
                0,
                0.5
            ],
            "min" : [
                -0.7072580456733704,
                0,
                -0.5
            ],
            "type" : "VEC3"
        },
        {
            "bufferView" : 6,
            "componentType" : 5126,
            "count" : 4,
            "type" : "VEC3"
        },
        {
            "bufferView" : 7,
            "componentType" : 5126,
            "count" : 4,
            "type" : "VEC2"
        },
        {
            "bufferView" : 8,
            "componentType" : 5123,
            "count" : 6,
            "type" : "SCALAR"
        }
    ],
    "bufferViews" : [
        {
            "buffer" : 0,
            "byteLength" : 144,
            "byteOffset" : 0
        },
        {
            "buffer" : 0,
            "byteLength" : 144,
            "byteOffset" : 144
        },
        {
            "buffer" : 0,
            "byteLength" : 96,
            "byteOffset" : 288
        },
        {
            "buffer" : 0,
            "byteLength" : 72,
            "byteOffset" : 384
        },
        {
            "buffer" : 0,
            "byteLength" : 545981,
            "byteOffset" : 456
        },
        {
            "buffer" : 0,
            "byteLength" : 48,
            "byteOffset" : 546440
        },
        {
            "buffer" : 0,
            "byteLength" : 48,
            "byteOffset" : 546488
        },
        {
            "buffer" : 0,
            "byteLength" : 32,
            "byteOffset" : 546536
        },
        {
            "buffer" : 0,
            "byteLength" : 12,
            "byteOffset" : 546568
        },
        {
            "buffer" : 0,
            "byteLength" : 2224667,
            "byteOffset" : 546580
        }
    ],
    "samplers" : [
        {
            "magFilter" : 9729,
            "minFilter" : 9987,
            "wrapS" : 33071,
            "wrapT" : 33071
        }
    ],
    "buffers" : [
        {
            "byteLength" : 2771248,
            "uri" : "data:application/octet-stream;base64,"
        }
    ]
}
